G04 (created by PCBNEW-RS274X (2011-dec-28)-stable) date Fri 20 Jan 2012 12:39:42 PM CET*
G01*
G70*
G90*
%MOIN*%
G04 Gerber Fmt 3.4, Leading zero omitted, Abs format*
%FSLAX34Y34*%
G04 APERTURE LIST*
%ADD10C,0.006000*%
%ADD11C,0.015000*%
%ADD12C,0.080000*%
%ADD13C,0.126300*%
%ADD14R,0.055000X0.075000*%
%ADD15R,0.075000X0.055000*%
%ADD16R,0.080000X0.080000*%
%ADD17R,0.067200X0.067200*%
%ADD18C,0.076000*%
%ADD19C,0.138100*%
%ADD20R,0.081000X0.043600*%
%ADD21R,0.096700X0.043600*%
G04 APERTURE END LIST*
G54D10*
G54D11*
X31299Y-29921D02*
X48425Y-29921D01*
X31299Y-42126D02*
X31299Y-29921D01*
X48425Y-42126D02*
X31299Y-42126D01*
X48425Y-29921D02*
X48425Y-42126D01*
G54D12*
X43426Y-35327D03*
X43426Y-36327D03*
X44213Y-36327D03*
X44213Y-35327D03*
G54D13*
X45276Y-33465D03*
X45276Y-38189D03*
G54D14*
X38170Y-32283D03*
X37420Y-32283D03*
X38995Y-32283D03*
X39745Y-32283D03*
X36004Y-40158D03*
X35254Y-40158D03*
X36003Y-41220D03*
X35253Y-41220D03*
X44113Y-32086D03*
X44863Y-32086D03*
X44113Y-31102D03*
X44863Y-31102D03*
X37420Y-31299D03*
X38170Y-31299D03*
G54D15*
X33622Y-34627D03*
X33622Y-33877D03*
G54D14*
X40570Y-32283D03*
X41320Y-32283D03*
G54D16*
X40126Y-40854D03*
G54D12*
X40126Y-39854D03*
X41126Y-40854D03*
X41126Y-39854D03*
X42126Y-40854D03*
X42126Y-39854D03*
X43126Y-40854D03*
X43126Y-39854D03*
X44126Y-40854D03*
X44126Y-39854D03*
G54D16*
X32283Y-35114D03*
G54D12*
X32283Y-36114D03*
X32283Y-37114D03*
X32283Y-38114D03*
G54D17*
X36791Y-40158D03*
X37617Y-40158D03*
X36790Y-41220D03*
X37616Y-41220D03*
X43130Y-32086D03*
X42304Y-32086D03*
X43130Y-31102D03*
X42304Y-31102D03*
G54D18*
X35630Y-32465D03*
X35630Y-34465D03*
G54D19*
X33071Y-31496D03*
X33071Y-40551D03*
X46850Y-40551D03*
X46850Y-31496D03*
G54D20*
X35905Y-38151D03*
X35905Y-37651D03*
X35905Y-37153D03*
X35905Y-36653D03*
X33781Y-36653D03*
X33781Y-37153D03*
X33781Y-37651D03*
X33781Y-38151D03*
G54D21*
X37717Y-33578D03*
X37717Y-34078D03*
X37717Y-34578D03*
X37717Y-35078D03*
X37717Y-35578D03*
X37717Y-36076D03*
X37717Y-36576D03*
X37717Y-37076D03*
X37717Y-37576D03*
X37717Y-38076D03*
X41417Y-38076D03*
X41417Y-37576D03*
X41417Y-37076D03*
X41417Y-36576D03*
X41417Y-36076D03*
X41417Y-35578D03*
X41417Y-35078D03*
X41417Y-34578D03*
X41417Y-34078D03*
X41417Y-33578D03*
M02*
