M48
METRIC,TZ
T1C0.635
T2C0.762
T3C0.813
T4C1.016
T5C2.301
T6C3.000
%
G90
G05
T1
X86.200Y-84.201
X91.201Y-90.200
X92.601Y-97.000
X92.601Y-100.200
X97.399Y-90.401
X97.399Y-91.801
X97.399Y-93.000
X97.399Y-94.201
X97.399Y-95.601
X98.801Y-84.000
X107.000Y-90.401
X107.000Y-91.600
X107.000Y-93.000
T2
X90.500Y-82.461
X90.500Y-87.541
T3
X110.302Y-89.731
X110.302Y-92.271
X112.301Y-89.731
X112.301Y-92.271
T4
X81.999Y-89.190
X81.999Y-91.730
X81.999Y-94.270
X81.999Y-96.810
X101.920Y-101.229
X101.920Y-103.769
X104.460Y-101.229
X104.460Y-103.769
X107.000Y-101.229
X107.000Y-103.769
X109.540Y-101.229
X109.540Y-103.769
X112.080Y-101.229
X112.080Y-103.769
T5
X115.001Y-85.001
X115.001Y-97.000
T6
X84.000Y-80.000
X84.000Y-103.000
X118.999Y-80.000
X118.999Y-103.000
T0
M30
